# xmcd
#
# Track frame offsets:
# 150
# 11825
# 27315
# 36410
# 49640
# 67578
# 82413
# 101770
# 119185
# 134518
# 151223
# 159248
# 182265
# 195060
#
# Disc length: 2731 seconds
#
# Revision: 0
# Processed by: cddbd v1.5.2PL0 Copyright (c) Steve Scherf et al.
# Submitted via: Axialis_AX_CDPlayer 2.6
#
DISCID=b20aa90e
DTITLE=Various Artist - Living Country Blues USA Volume 4 - Tennessee Blues
DTITLE=!
DYEAR=1900
DGENRE=
TTITLE0=Someday Baby - Hammie Nixon and Walter Cooper
TTITLE1=I Got A Gal Cross The Bottom - Lottie Murrell
TTITLE2=Louise Blues - Hammie Nixon
TTITLE3=Cow Cow Blues - Memphis Piano Red
TTITLE4=Goin' To Chicago - Memphis Piano Red
TTITLE5=She's Taylor Made - Charlie Sangster
TTITLE6=Mr. Freddy - Memphis Piano Red
TTITLE7=Hangover - Memphis Piano Red
TTITLE8=Viola Lee Blues - Hammie Nixon
TTITLE9=Good Patuni - Memphis Piano Red
TTITLE10=Rollin' And Tumblin' - Lottie Murrell
TTITLE11=Moanin The Blues - Charlie Sangster
TTITLE12=Mothe-In-Law Blues - Hammie Nixon
TTITLE13=Soon One Morning - Hammie Nixon and Walter Cooper
EXTD=
EXTT0=
EXTT1=
EXTT2=
EXTT3=
EXTT4=
EXTT5=
EXTT6=
EXTT7=
EXTT8=
EXTT9=
EXTT10=
EXTT11=
EXTT12=
EXTT13=
PLAYORDER=
